<?xml version="1.0" encoding="utf-8"?>
<!-- Generator: Adobe Illustrator 24.2.0, SVG Export Plug-In . SVG Version: 6.00 Build 0)  -->
<svg version="1.1" id="Layer_1" xmlns="http://www.w3.org/2000/svg" xmlns:xlink="http://www.w3.org/1999/xlink" x="0px" y="0px"
	 viewBox="0 0 945 945" enable-background="new 0 0 945 945" xml:space="preserve">
<g>
	<g>
		<path fill="#008000" d="M-964.5,0.5h945v945h-945V0.5z M-616.93,51.05l-10.43,13.98c0,0,7.91-1.68,11.85-2.58
			c1.53-2.2,3.05-4.4,4.56-6.62c2.27,1.3,4.55,2.59,6.81,3.92c4.06-0.97,12.14-3.11,12.14-3.11l-16.4-7.86L-616.93,51.05z
			 M-517.76,53.28c0.74,12.98,1.17,25.98,1.81,38.97c-9.61-12.56-19.1-25.2-28.65-37.8c-5.74,0.28-11.48,0.51-17.22,0.79
			c0.81,20.73,1.87,41.45,2.69,62.18c5.78-0.22,11.55-0.5,17.33-0.69c-0.61-13.04-1.2-26.07-1.75-39.11
			c9.67,12.56,18.92,25.49,28.85,37.83c5.66-0.13,11.32-0.55,16.98-0.72c-0.91-20.76-1.8-41.52-2.8-62.28
			C-506.27,52.82-512.02,52.97-517.76,53.28z M-446.21,53.7c-3.05,20.51-6.35,40.99-9.32,61.51c9.06,1.39,18.11,2.82,27.18,4.16
			c6.52,0.92,13.56,1.02,19.6-1.97c8.32-3.88,11.38-16.06,5.65-23.3c-1.64-2.06-4.13-3.15-6.41-4.33c2.35-0.9,4.85-1.74,6.66-3.58
			c5.5-5.51,5.58-15.63-0.27-20.93c-5.53-5.05-13.08-7-20.29-8.19C-431.02,56-438.59,54.63-446.21,53.7z M-629.81,73.29
			c5.29,20.5,10.47,41.03,15.8,61.52c15.3-3.87,30.58-7.8,45.86-11.74c-0.97-3.73-1.9-7.46-2.93-11.18
			c-9.8,2.48-19.58,5.04-29.39,7.51c-1.26-5.02-2.61-10.02-3.82-15.05c8.2-1.97,16.34-4.16,24.52-6.23
			c-0.96-3.74-1.89-7.49-2.86-11.23c-8.17,2.12-16.35,4.18-24.52,6.32c-1.15-4.3-2.23-8.61-3.33-12.92
			c9.83-2.51,19.67-5.01,29.48-7.58c-0.96-3.7-1.95-7.4-2.84-11.13C-599.19,65.35-614.48,69.42-629.81,73.29z M-397.76,124.8
			c5.65,2.19,11.26,4.46,16.94,6.6c2.78-3.25,5.57-6.5,8.39-9.72c6.67,2.64,13.31,5.34,19.99,7.97c-0.08,4.27-0.65,8.54-0.33,12.81
			c5.49,2.44,11.21,4.34,16.75,6.68c0.02-8.88-0.04-17.77,0.02-26.66c0.6-13.41-0.2-26.84,0.56-40.25
			c-5.75-2.23-11.51-4.47-17.22-6.8C-367.76,91.83-382.75,108.32-397.76,124.8z M-664.61,90.03c8.54,18.96,17.04,37.94,25.67,56.86
			c5.01-2.27,10.05-4.5,15.06-6.79c-8.56-18.95-17.11-37.9-25.62-56.87C-654.54,85.49-659.55,87.8-664.61,90.03z M-694.02,103.37
			c3.74,16.1,7.22,32.26,11.07,48.34c-11.87-11.48-24.16-22.51-36.18-33.82c-5.05,2.99-10.21,5.78-15.19,8.89
			c17.08,14.05,34.04,28.25,51.08,42.35c5.26-2.97,10.54-5.9,15.65-9.12c-3.8-21.76-7.49-43.54-11.16-65.33
			C-683.92,97.42-688.93,100.48-694.02,103.37z M-304.23,115.78c-5.55,5.49-12.71,10.08-15.38,17.79
			c-3.21,8.84-0.56,18.78,4.82,26.19c5.63,7.47,12.98,14.59,22.43,16.59c6.48,1.47,12.93-1.6,17.56-5.98
			c-3.92-4.32-7.82-8.65-11.81-12.9c-2.89,2.11-6.42,4.97-10.19,3.24c-5.73-2.71-10.87-9.12-9.09-15.77
			c1.52-6.02,7.04-9.52,11.24-13.59c3.98-3.77,8.29-8.19,14.15-8.41c6.16-0.06,10.62,5.44,12.82,10.64
			c1.56,3.86-1.32,7.43-3.69,10.17c3.89,4.33,7.77,8.69,11.87,12.84c3.95-3.65,7.12-8.52,7.26-14.06
			c0.07-8.19-4.36-15.58-9.51-21.62c-5.65-6.92-13.66-12.57-22.83-13.03C-291.98,107.2-299.09,110.64-304.23,115.78z
			 M-596.59,139.61c1.05,3.74,2.13,7.47,3.18,11.21c5.4-1.6,10.82-3.12,16.23-4.67c-1.11-3.7-2.17-7.42-3.2-11.15
			C-585.78,136.56-591.18,138.12-596.59,139.61z M-377.01,142.12c0,0-3.93,6.54-5.82,9.86c4.6,2.64,9.12,5.41,13.67,8.14
			c1.82-3.2,5.59-9.51,5.59-9.51L-377.01,142.12z M-228.29,143.12c-14.49,15.27-29.2,30.31-43.69,45.56
			c3.64,3.76,7.55,7.22,11.25,10.91c6.01-5.89,11.64-12.15,17.58-18.11c5.96,5.45,11.64,11.2,17.54,16.72
			c-5.78,6.18-11.78,12.15-17.55,18.34c3.86,3.57,7.57,7.3,11.45,10.85c14.46-15.28,29.15-30.36,43.71-45.55
			c-3.74-3.67-7.62-7.2-11.26-10.97c-6.13,6.36-12.29,12.69-18.37,19.1c-5.77-5.72-11.69-11.28-17.52-16.93
			c6.22-6.21,12.15-12.71,18.33-18.96C-220.72,150.5-224.39,146.69-228.29,143.12z M-518.97,149.3
			c-59.21,4.76-116.89,26.66-164.32,62.42c-56.27,41.99-97.98,103.09-116.26,170.9c-15.36,56.35-14.82,116.92,1.52,172.99
			c10.65,36.51,27.94,71.1,50.8,101.5c42.74,57.32,105.33,99.54,174.62,117.29c47.2,12.25,97.22,13.41,144.97,3.55
			c57.06-11.69,110.58-39.7,152.94-79.65c42.52-39.91,73.82-91.71,89.05-148.04c12.11-44.45,14.34-91.54,6.74-136.97
			c-6.83-40.89-21.81-80.39-43.83-115.51c-36.17-58.14-91.64-103.98-155.59-128.47C-422.9,152.13-471.38,145.37-518.97,149.3z
			 M-776.23,161.54c-3.66,3.79-7.21,7.67-10.99,11.35c6.28,5.96,12.46,12.03,18.61,18.13c-5.58,5.91-11.25,11.74-17,17.49
			c-6.17-6.08-12.42-12.06-18.63-18.09c-3.57,3.93-7.56,7.46-11,11.52c14.96,14.43,29.86,28.92,44.75,43.42
			c3.53-3.97,7.52-7.5,11.01-11.51c-5.96-5.79-11.94-11.56-17.92-17.32c5.68-5.86,11.41-11.66,17.03-17.58
			c6.01,5.75,11.99,11.53,17.87,17.41c3.8-3.71,7.48-7.53,11.11-11.41C-746.38,190.53-761.13,175.86-776.23,161.54z M-828.34,221.38
			c-3.07,4.66-6.19,9.3-9.28,13.96c11.12,7.39,22.22,14.8,33.37,22.16c-15.95-0.38-31.91-0.2-47.86-0.44
			c-2.97,4.68-6.1,9.26-9.19,13.86c17.69,11.75,35.39,23.5,53.06,35.27c3.03-4.71,6.18-9.35,9.29-14.02
			c-11.15-7.35-22.24-14.8-33.36-22.2c15.91,0.36,31.83,0.2,47.73,0.53c3.05-4.65,6.16-9.25,9.23-13.89
			C-792.98,244.82-810.72,233.19-828.34,221.38z M-205.57,260.66c2.79,4.67,5.57,9.35,8.35,14.04
			c11.58-6.82,23.12-13.73,34.69-20.58c-8.99,11.17-18.05,22.28-27.03,33.46c1.88,3.13,3.72,6.29,5.58,9.45
			c14.33-2.68,28.69-5.24,43.04-7.87c-11.71,7.07-23.54,13.94-35.24,21.01c2.86,4.64,5.57,9.37,8.41,14.03
			c18.26-10.92,36.57-21.77,54.87-32.63c-3.61-6.16-7.32-12.25-10.9-18.43c-15.47,2.97-30.88,6.24-46.34,9.28
			c10.1-12.03,20.21-24.06,30.36-36.06c-3.6-6.13-7.25-12.23-10.88-18.34C-168.97,238.91-187.27,249.79-205.57,260.66z
			 M-888.04,335.64c19.1,8.22,38.13,16.62,57.23,24.82c6.12-13.99,12.21-28,18.27-42.01c-3.49-1.51-6.96-3.05-10.46-4.53
			c-3.87,9-7.78,17.97-11.71,26.94c-4.61-2.02-9.23-4.03-13.86-6.01c3.19-7.53,6.52-15,9.74-22.52c-3.49-1.51-6.96-3.05-10.47-4.51
			c-3.25,7.5-6.46,15-9.79,22.46c-3.96-1.77-7.95-3.48-11.92-5.22c3.92-9,7.95-17.96,11.67-27.05c-3.46-1.47-6.9-2.95-10.35-4.42
			C-875.87,307.58-881.87,321.65-888.04,335.64z M-896.7,304.38l-3.21,7.9l5.14,16.67c0,0,3.16-7.17,4.76-10.75
			c-0.88-2.47-1.73-4.94-2.59-7.4c2.41-1.06,4.82-2.12,7.23-3.21c1.53-3.71,4.56-11.16,4.56-11.16L-896.7,304.38z M-163.62,332
			c1.66,5.98,3.45,11.94,5.14,17.92c4.28,0.27,8.57,0.57,12.85,0.91c2.01,7.09,4.14,14.14,6.1,21.25c-3.46,2.51-6.92,5-10.34,7.57
			c1.77,5.97,3.46,11.97,5.22,17.95c17.68-13.64,35.29-27.38,53-40.99c-1.71-6.12-3.46-12.24-5.31-18.32
			C-119.19,336.31-141.41,334.14-163.62,332z M-810.03,334.27c-2.16,5.09-4.43,10.12-6.55,15.22c3.49,1.46,6.96,2.98,10.42,4.53
			c2.18-5.07,4.41-10.12,6.57-15.19C-803.05,337.27-806.54,335.77-810.03,334.27z M-891.43,365.66c-5.6,4.98-7.9,12.54-9.22,19.68
			c-1.32,8.21-2.58,16.44-3.79,24.67c21.33,3.26,42.65,6.6,63.98,9.85c1.33-9.23,2.86-18.42,4.2-27.64
			c0.87-6.8,0.95-14.2-2.58-20.32c-4.02-6.96-13.49-9.72-20.81-6.83c-3.71,1.44-5.97,4.89-7.53,8.37
			C-869.01,362.76-883.66,358.89-891.43,365.66z M-144.58,404.58c0.97,5.75,1.94,11.51,2.95,17.27c20.61-3.6,41.24-7.13,61.89-10.57
			c-0.79-5.79-1.89-11.53-2.85-17.29C-103.24,397.59-123.91,401.12-144.58,404.58z M-880.87,617.16c3.05,6.82,6,13.69,9.01,20.53
			c2.64,6.05,5.33,12.34,10.16,17.01c2.97,2.99,6.94,5.26,11.25,5.32c5.75,0.12,12.02-2.53,14.72-7.85c1.68-2.99,1.23-6.54,1.07-9.8
			c6.84,7.6,20.69,3.85,23.56-5.68c2.34-7.8-0.27-16.02-3.28-23.26c-3.11-7.11-6.21-14.21-9.34-21.31
			C-842.76,600.49-861.82,608.82-880.87,617.16z M-108.04,599.34c-4.05,9.64-8.25,19.21-12.32,28.85
			c-15.85-6.78-31.7-13.58-47.54-20.38c-2.32,5.29-4.59,10.59-6.79,15.93c19.38,8.31,38.75,16.64,58.16,24.88
			c6.35-14.95,12.84-29.85,19.15-44.82C-100.93,602.3-104.47,600.77-108.04,599.34z M-196.88,661.62
			c13.38,18.02,26.63,36.14,40.1,54.1c3.32-5.51,6.71-10.98,10.02-16.5c-2.69-3.32-5.32-6.7-7.97-10.05
			c3.91-6.53,7.92-13.01,11.85-19.53c4.22,0.77,8.44,1.58,12.66,2.41c3.36-5.5,6.67-11.03,10.08-16.49
			c-22.19-3.51-44.38-7.09-66.57-10.64C-190.12,650.47-193.51,656.04-196.88,661.62z M-854.48,672.69
			c3.46,5.19,6.74,10.49,10.36,15.57c4.21-1.13,8.44-2.16,12.66-3.22c3.97,6.18,8.01,12.33,11.99,18.51
			c-2.66,3.48-5.3,6.98-8.03,10.4c3.38,5.24,6.88,10.41,10.23,15.67c13.35-18.6,26.75-37.16,40.1-55.75
			c-3.51-5.24-6.89-10.56-10.38-15.8C-809.85,662.97-832.17,667.82-854.48,672.69z M-241.88,716.67c3.24,2.82,6.41,5.72,9.69,8.5
			c4.15-4.69,8.23-9.45,12.32-14.19c13.18,11.45,26.36,22.88,39.53,34.33c3.78-4.29,7.5-8.63,11.27-12.94
			c-13.17-11.45-26.35-22.89-39.52-34.33c4.18-4.83,8.37-9.66,12.56-14.48c-3.24-2.82-6.43-5.7-9.67-8.51
			C-217.76,688.92-229.79,702.82-241.88,716.67z M-773.41,702.68c-7.94,3.47-13.4,10.55-19.91,16.01
			c-9.36,8.34-10.77,23.28-4.08,33.67c5.14,7.93,12.55,15.28,22.01,17.5c7.18,1.71,14.31-1.69,19.42-6.57
			c-3.79-4.2-7.64-8.33-11.4-12.53c-3.04,2.33-6.97,5.61-10.98,3.57c-5.33-2.52-10.05-8.66-8.18-14.79
			c1.48-6.1,6.94-9.77,11.23-13.86c4.4-3.89,8.57-8.84,14.69-9.8c6.41-1.18,11.57,4.62,13.55,10.09c1.29,4.03-1.8,7.5-4.3,10.24
			c3.74,4.24,7.66,8.31,11.39,12.56c4.71-4.07,8.38-9.87,8.17-16.29c-0.29-9.71-6.5-18.02-13.32-24.4
			C-752.55,701.15-763.97,698.63-773.41,702.68z M-245.02,718.38c-4.04,4.18-8.35,8.08-12.45,12.21
			c15.04,15.14,29.86,30.49,44.97,45.55c4.13-4.1,8.15-8.31,12.49-12.19C-215.09,748.83-229.91,733.45-245.02,718.38z
			 M-761.65,786.68c4.32,3.18,8.62,6.38,13.01,9.47c5.01-7.01,10.13-13.93,15.22-20.89c6.68,4.81,13.28,9.73,19.96,14.55
			c-5.01,7.03-10.19,13.93-15.23,20.94c4.29,3.17,8.58,6.35,12.94,9.43c12.7-17.39,25.36-34.81,38.14-52.15
			c-4.28-3.23-8.61-6.39-12.97-9.5c-5.25,7.29-10.6,14.5-15.87,21.77c-6.66-4.85-13.27-9.77-19.99-14.55
			c5.22-7.33,10.64-14.52,15.87-21.84c-4.3-3.18-8.61-6.35-12.96-9.46C-736.22,751.87-748.96,769.26-761.65,786.68z M-279.55,747.43
			c-7.34,5.5-14.63,11.08-21.96,16.6c12.93,17.21,25.93,34.36,38.94,51.51c4.32-3.28,8.65-6.55,12.98-9.82
			c-4.42-5.86-8.85-11.72-13.29-17.57c7.77-5.86,16.97-11.56,19.84-21.5c3.59-10.51-3.69-22.89-14.46-25.16
			C-265.31,739.74-273.3,742.83-279.55,747.43z M-335.58,782.43c-5.49,4.15-10.2,10.07-11.15,17.06
			c-0.83,7.49,4.75,15.43,12.34,16.54c9.1,1.03,18.01-1.59,26.82-3.44c3.21-0.56,7.28-1.52,9.8,1.22c2.62,2.16,2.57,6.3,0.25,8.67
			c-3.38,3.58-8.09,6.06-13,6.57c-3.52-0.04-5.78-2.93-7.69-5.47c-4.81,2.77-9.63,5.51-14.33,8.45c2.8,4.86,7.22,9.33,13.08,9.92
			c10.49,1.2,20.69-3.46,28.91-9.62c5-3.93,9.68-9.18,10.69-15.67c1.36-8.34-5.13-17.1-13.55-18.04
			c-10.63-1.69-20.67,3.43-31.16,3.88c-2.09,0.21-4.3-0.63-5.43-2.46c-1.62-2.44-0.61-5.68,1.25-7.68c2.86-3.13,6.95-5.28,11.2-5.58
			c2.96-0.11,4.85,2.42,6.64,4.39c4.7-2.91,9.56-5.55,14.24-8.48c-2.59-4.31-6.61-8.07-11.75-8.83
			C-318.24,772.19-327.83,776.8-335.58,782.43z M-654.43,781.21c-8.16,19.97-16.25,39.97-24.44,59.93
			c5.03,2.07,10.1,4.07,15.12,6.18c5.26-12.62,10.25-25.35,15.56-37.95c-0.6,14.53-1.08,29.06-1.63,43.59
			c3.37,1.4,6.76,2.76,10.15,4.13c9.94-10.83,19.75-21.78,29.71-32.59c-5.13,12.82-10.46,25.56-15.57,38.4
			c5.05,2.01,10.08,4.06,15.1,6.15c8.16-20,16.27-40.01,24.46-59.99c-6.68-2.63-13.31-5.41-19.96-8.1
			c-10.43,12.05-21.05,23.93-31.47,35.99c0.78-15.92,1.78-31.82,2.65-47.73C-641.31,786.56-647.87,783.88-654.43,781.21z
			 M-378.95,800.26c-12.66,2.94-25.29,11.84-27.74,25.33c-2.18,9.41,3.21,17.89,6.81,26.13c2.95,6.83,8.93,12.31,16.13,14.31
			c10.93,3.3,22.8-0.38,31.83-6.83c7.82-5.5,12.97-15.1,12.07-24.75c-0.25-4.22-1.94-8.13-3.72-11.89
			c-2.63-5.51-4.65-11.57-9.19-15.86C-359.61,800.17-369.89,798.18-378.95,800.26z M-562.52,813.15
			c-12.03,18.94-23.92,37.96-35.93,56.92c6.35,1.13,12.7,2.29,19.07,3.34c2.14-3.7,4.31-7.39,6.51-11.05
			c7.45,1.42,14.99,2.43,22.39,4.08c1.07,4.14,1.54,8.41,2.47,12.58c6.33,1.09,12.64,2.23,18.97,3.33
			c-4.8-21.93-9.48-43.88-14.26-65.81C-549.71,815.39-556.12,814.28-562.52,813.15z M-429.16,814.43
			c0.91,8.94,1.92,17.88,2.85,26.82c-7.87,0.92-15.76,1.64-23.62,2.6c-1.04-8.97-1.91-17.95-2.95-26.91
			c-5.06,0.64-10.14,1.13-15.21,1.69c2.33,21.43,4.5,42.88,6.95,64.31c5.07-0.67,10.18-1.04,15.24-1.78
			c-1.08-8.53-1.83-17.1-2.83-25.64c7.87-0.94,15.78-1.61,23.64-2.62c0.99,8.61,1.87,17.23,2.79,25.86
			c5.08-0.63,10.16-1.11,15.25-1.64c-2.33-21.4-4.65-42.81-6.87-64.24C-419.01,813.28-424.07,813.96-429.16,814.43z M-520.01,819.23
			c-0.42,21.23-0.61,42.48-0.88,63.72c5.79,0.14,11.58,0.37,17.37,0.27c0.38-21.22,0.55-42.44,0.76-63.66
			C-508.51,819.24-514.26,819.17-520.01,819.23z"/>
	</g>
	<path fill="#008000" d="M-433.88,81.66c0.71-4.78,1.45-9.56,2.18-14.34c4.65,0.82,9.72,0.84,13.79,3.49
		c3.98,2.57,3.34,9.3-0.9,11.24C-423.66,84.1-428.92,82.21-433.88,81.66z"/>
	<path fill="#008000" d="M-435.41,91.41c5.24,0.94,10.82,0.9,15.7,3.24c5.43,2.73,4.22,12.45-1.92,13.42
		c-5.39,0.66-10.71-0.98-16.03-1.58C-436.93,101.46-436.14,96.44-435.41,91.41z"/>
	<path fill="#008000" d="M-364.58,112.53c4.41-4.96,8.67-10.05,13.09-15.01c-0.04,6.68-0.55,13.35-0.49,20.03
		C-356.19,115.9-360.38,114.2-364.58,112.53z"/>
	<g>
		<path fill="#008000" d="M-523.03,193.15c24.92-7.64,52.55-6.1,76.42,4.4c27.58,11.93,49.86,35.52,60.01,63.83
			c5.96,16.61,8.14,34.68,5.56,52.18c19.12-8.86,40.76-12.46,61.68-9.56c31.6,3.97,60.75,22.65,78.08,49.29
			c11.68,17.77,18.06,38.97,18.08,60.24c0.11,21.8-6.45,43.59-18.59,61.7c-16.25,24.46-42.45,42.16-71.38,47.53
			c10.29,11.24,18.62,24.34,23.73,38.74c8.82,24.26,8.61,51.62-0.43,75.79c-10.27,27.96-32.38,51.24-59.71,63.06
			c-24.27,10.63-52.42,12.09-77.64,3.97c-27-8.45-50.26-27.83-63.75-52.66c-16.23,30.11-47.05,51.91-80.99,56.66
			c-36.37,5.71-75.01-8.43-99.16-36.19c-24.1-26.76-33.64-65.72-24.5-100.57c4.6-18.25,13.97-35.23,26.9-48.89
			c-17.64-3.47-34.42-11.23-48.42-22.51c-17.36-13.94-30.41-33.18-36.77-54.52c-6.76-22.42-6.14-47.01,1.81-69.04
			c8.57-24.08,25.83-44.89,47.77-57.98c20.83-12.46,45.87-17.83,69.97-14.75c11.64,1.37,22.98,4.79,33.62,9.68
			c-2.96-24.08,1.74-49.15,14.14-70.09C-572.71,219.52-549.56,201.09-523.03,193.15z M-508.39,301.69
			c-14.03,7.89-25.36,20.23-32.52,34.61c-9.11,17.92-12.44,38.21-13.05,58.14c-0.06,16.12,0,32.24-0.02,48.36
			c-11.34-6.7-23.19-12.65-35.68-16.89c-13.93-4.66-29.08-7.47-43.65-4.26c-10.55,2.3-20.75,8.56-25.74,18.4
			c-5.76,11-5,25.97,3.99,35.05c6.69,7.16,17.41,9.27,26.74,7.16c10.34-2.26,19.28-8.57,26.65-15.96
			c4.87-5.18,12.27-7.19,19.22-6.78c10.03,0.55,19.55,4.31,28.47,8.7c0,52.19,0,104.37,0,156.55c35.83,0,71.66-0.02,107.5,0.01
			c3.57,0.28,6.54-2.04,9.38-3.88c8.61-5.83,14.08-15.87,14.46-26.26c0.61-12.93-4.39-25.36-10.52-36.5
			c-9.55-16.95-22.25-31.88-35.67-45.87c1.07-4.78,2.67-9.52,5.62-13.49c6.34-8.82,15.99-14.42,25.51-19.19
			c4.2-1.92,8.41-4.6,13.2-4.39c3.22,0.15,5.65,2.47,7.93,4.48c8.04,7.62,20.46,10.37,30.91,6.65c9.68-3.49,16.27-13.67,15.84-23.9
			c-0.84-13.18-10.03-25.91-23.02-29.39c-11.52-3.05-23.53,0.25-34.18,4.79c-10.54,4.47-20.7,10.02-29.48,17.43
			c-13.17,10.64-22.67,25.31-28.59,41.07c-13.69-12.78-27.93-24.99-42.94-36.19c0.25-18.26-0.96-36.64,2.05-54.74
			c1.76-10.87,4.08-22.03,10.02-31.48c3.08-4.95,8.31-9.32,14.45-8.99c7.39,0.26,13.71,4.84,18.99,9.63
			c14.76,13.09,37.82,15.69,55.12,6.26c12.32-6.75,19.15-20.53,20.6-34.11c1.47-9.59,0.17-19.68-4.47-28.27
			c-7.93-14.86-23.16-25.75-39.86-28.13C-470.76,288.3-491.16,291.91-508.39,301.69z"/>
	</g>
	<path fill="#008000" d="M-465.77,313.23c3.99-0.01,7.99,0,11.99-0.01c0.01,7,0.01,14,0,21.01c7-0.01,14.01,0,21.01-0.01
		c-0.01,4.01-0.01,8.01,0.01,12.02c-7.01-0.03-14.01-0.01-21.01-0.01c0,6.93-0.01,13.86,0,20.79c-4-0.02-8.01-0.01-12.01-0.01
		c0.02-6.93-0.01-13.86,0.02-20.79c-6.91,0.01-13.82-0.01-20.72,0.02c-0.01-4.01-0.01-8.01,0-12.02c6.9,0.01,13.81-0.01,20.71,0.01
		C-465.78,327.23-465.77,320.23-465.77,313.23z"/>
	<path fill="#008000" d="M-133.57,351.59c6.77,0.37,13.54,0.91,20.32,1.27c-5.48,4.01-10.95,8.02-16.44,12.01
		C-131.05,360.46-132.28,356.02-133.57,351.59z"/>
	<path fill="#008000" d="M-886.54,381.39c3.04-4.11,10.68-2.77,11.9,2.27c1.39,4.67-0.24,9.47-0.73,14.16
		c-4.98-0.81-9.96-1.55-14.95-2.32C-889.41,390.75-889.5,385.46-886.54,381.39z"/>
	<path fill="#008000" d="M-862.14,383.84c2.77-5.7,12.97-4.6,14.1,1.78c0.82,5.42-1.08,10.79-1.56,16.18
		c-5.23-0.88-10.48-1.63-15.72-2.45C-864.3,394.18-864.37,388.69-862.14,383.84z"/>
	<path fill="#008000" d="M-528.01,484.16c14.27,10.15,27.84,21.34,40.39,33.55c1.43,4.32,1.09,9.24,2.13,13.75
		c2.62,13.1,2.19,27.19-3.56,39.44c-7.39,16.25-22.53,27.87-38.98,33.99C-528,564.65-528.04,524.41-528.01,484.16z"/>
	<path fill="#008000" d="M-468.67,537.34c9.34,10.37,18.26,22.02,21.02,36.03c1.9,8.58,0.18,18.46-6.45,24.64
		c-7.53,7.03-18.36,8.5-28.25,8.55C-470.11,585.74-469.68,560.79-468.67,537.34z"/>
	<path fill="#008000" d="M-840.82,617.58c4.41-1.96,8.84-3.89,13.27-5.81c1.78,4.2,4.1,8.31,4.54,12.93
		c0.19,4.93-6.32,8.71-10.33,5.64C-837.41,627.24-838.68,621.98-840.82,617.58z"/>
	<path fill="#008000" d="M-863.81,627.59c4.66-1.97,9.29-4.02,13.91-6.09c1.92,4.66,4.56,9.09,5.59,14.06
		c1.18,4.95-4.25,9.08-8.83,8.43c-2.86-0.62-4.66-3.21-5.92-5.65C-860.79,634.82-862.22,631.17-863.81,627.59z"/>
	<path fill="#008000" d="M-174.86,663.59c6.69,1.21,13.36,2.55,20.07,3.72c-2.5,4.08-4.98,8.16-7.46,12.25
		C-166.49,674.26-170.65,668.9-174.86,663.59z"/>
	<path fill="#008000" d="M-819.41,682.12c6.62-1.72,13.25-3.34,19.9-4.91c-4.16,5.46-8.26,10.96-12.48,16.38
		C-814.44,689.74-816.91,685.92-819.41,682.12z"/>
	<path fill="#008000" d="M-269.01,755.18c7.31-2.44,14.9,6.99,10.72,13.56c-2.96,4.3-7.81,6.71-11.71,10.03
		c-3.77-5.08-7.63-10.08-11.42-15.13C-277.28,760.84-273.75,756.97-269.01,755.18z"/>
	<path fill="#008000" d="M-380.16,813c4.26-1.65,9.2-0.34,12.51,2.69c3.75,3.25,5.32,8.11,7.4,12.45c2.02,4.5,4.66,9.2,3.9,14.32
		c-0.98,9.86-14.63,15.65-22.24,9.14c-4.44-3.34-6.03-8.88-8.37-13.66c-2.19-4.77-4.91-10.04-3.25-15.4
		C-389.13,817.65-384.71,814.41-380.16,813z"/>
	<path fill="#008000" d="M-566.73,851.9c3.48-5.86,6.9-11.74,10.37-17.59c1.22,6.69,2.53,13.37,3.71,20.07
		C-557.35,853.58-562.04,852.75-566.73,851.9z"/>
</g>
<g>
	<path fill="#FFFFFF" d="M-616.93,51.05l8.53-2.27l16.4,7.86c0,0-8.08,2.14-12.14,3.11c-2.26-1.33-4.54-2.62-6.81-3.92
		c-1.51,2.22-3.03,4.42-4.56,6.62c-3.94,0.9-11.85,2.58-11.85,2.58L-616.93,51.05z"/>
	<path fill="#FFFFFF" d="M-517.76,53.28c5.74-0.31,11.49-0.46,17.24-0.83c1,20.76,1.89,41.52,2.8,62.28
		c-5.66,0.17-11.32,0.59-16.98,0.72c-9.93-12.34-19.18-25.27-28.85-37.83c0.55,13.04,1.14,26.07,1.75,39.11
		c-5.78,0.19-11.55,0.47-17.33,0.69c-0.82-20.73-1.88-41.45-2.69-62.18c5.74-0.28,11.48-0.51,17.22-0.79
		c9.55,12.6,19.04,25.24,28.65,37.8C-516.59,79.26-517.02,66.26-517.76,53.28z"/>
	<g>
		<path fill="#FFFFFF" d="M-446.21,53.7c7.62,0.93,15.19,2.3,22.8,3.37c7.21,1.19,14.76,3.14,20.29,8.19
			c5.85,5.3,5.77,15.42,0.27,20.93c-1.81,1.84-4.31,2.68-6.66,3.58c2.28,1.18,4.77,2.27,6.41,4.33c5.73,7.24,2.67,19.42-5.65,23.3
			c-6.04,2.99-13.08,2.89-19.6,1.97c-9.07-1.34-18.12-2.77-27.18-4.16C-452.56,94.69-449.26,74.21-446.21,53.7z M-433.88,81.66
			c4.96,0.55,10.22,2.44,15.07,0.39c4.24-1.94,4.88-8.67,0.9-11.24c-4.07-2.65-9.14-2.67-13.79-3.49
			C-432.43,72.1-433.17,76.88-433.88,81.66z M-435.41,91.41c-0.73,5.03-1.52,10.05-2.25,15.08c5.32,0.6,10.64,2.24,16.03,1.58
			c6.14-0.97,7.35-10.69,1.92-13.42C-424.59,92.31-430.17,92.35-435.41,91.41z"/>
	</g>
	<path fill="#FFFFFF" d="M-629.81,73.29c15.33-3.87,30.62-7.94,45.97-11.71c0.89,3.73,1.88,7.43,2.84,11.13
		c-9.81,2.57-19.65,5.07-29.48,7.58c1.1,4.31,2.18,8.62,3.33,12.92c8.17-2.14,16.35-4.2,24.52-6.32c0.97,3.74,1.9,7.49,2.86,11.23
		c-8.18,2.07-16.32,4.26-24.52,6.23c1.21,5.03,2.56,10.03,3.82,15.05c9.81-2.47,19.59-5.03,29.39-7.51
		c1.03,3.72,1.96,7.45,2.93,11.18c-15.28,3.94-30.56,7.87-45.86,11.74C-619.34,114.32-624.52,93.79-629.81,73.29z"/>
	<g>
		<path fill="#FFFFFF" d="M-397.76,124.8c15.01-16.48,30-32.97,45.1-49.37c5.71,2.33,11.47,4.57,17.22,6.8
			c-0.76,13.41,0.04,26.84-0.56,40.25c-0.06,8.89,0,17.78-0.02,26.66c-5.54-2.34-11.26-4.24-16.75-6.68
			c-0.32-4.27,0.25-8.54,0.33-12.81c-6.68-2.63-13.32-5.33-19.99-7.97c-2.82,3.22-5.61,6.47-8.39,9.72
			C-386.5,129.26-392.11,126.99-397.76,124.8z M-364.58,112.53c4.2,1.67,8.39,3.37,12.6,5.02c-0.06-6.68,0.45-13.35,0.49-20.03
			C-355.91,102.48-360.17,107.57-364.58,112.53z"/>
	</g>
	<path fill="#FFFFFF" d="M-664.61,90.03c5.06-2.23,10.07-4.54,15.11-6.8c8.51,18.97,17.06,37.92,25.62,56.87
		c-5.01,2.29-10.05,4.52-15.06,6.79C-647.57,127.97-656.07,108.99-664.61,90.03z"/>
	<path fill="#FFFFFF" d="M-694.02,103.37c5.09-2.89,10.1-5.95,15.27-8.69c3.67,21.79,7.36,43.57,11.16,65.33
		c-5.11,3.22-10.39,6.15-15.65,9.12c-17.04-14.1-34-28.3-51.08-42.35c4.98-3.11,10.14-5.9,15.19-8.89
		c12.02,11.31,24.31,22.34,36.18,33.82C-686.8,135.63-690.28,119.47-694.02,103.37z"/>
	<path fill="#FFFFFF" d="M-304.23,115.78c5.14-5.14,12.25-8.58,19.65-7.9c9.17,0.46,17.18,6.11,22.83,13.03
		c5.15,6.04,9.58,13.43,9.51,21.62c-0.14,5.54-3.31,10.41-7.26,14.06c-4.1-4.15-7.98-8.51-11.87-12.84
		c2.37-2.74,5.25-6.31,3.69-10.17c-2.2-5.2-6.66-10.7-12.82-10.64c-5.86,0.22-10.17,4.64-14.15,8.41
		c-4.2,4.07-9.72,7.57-11.24,13.59c-1.78,6.65,3.36,13.06,9.09,15.77c3.77,1.73,7.3-1.13,10.19-3.24c3.99,4.25,7.89,8.58,11.81,12.9
		c-4.63,4.38-11.08,7.45-17.56,5.98c-9.45-2-16.8-9.12-22.43-16.59c-5.38-7.41-8.03-17.35-4.82-26.19
		C-316.94,125.86-309.78,121.27-304.23,115.78z"/>
	<path fill="#FFFFFF" d="M-596.59,139.61c5.41-1.49,10.81-3.05,16.21-4.61c1.03,3.73,2.09,7.45,3.2,11.15
		c-5.41,1.55-10.83,3.07-16.23,4.67C-594.46,147.08-595.54,143.35-596.59,139.61z"/>
	<path fill="#FFFFFF" d="M-377.01,142.12l13.44,8.49c0,0-3.77,6.31-5.59,9.51c-4.55-2.73-9.07-5.5-13.67-8.14
		C-380.94,148.66-377.01,142.12-377.01,142.12z"/>
	<path fill="#FFFFFF" d="M-228.29,143.12c3.9,3.57,7.57,7.38,11.47,10.96c-6.18,6.25-12.11,12.75-18.33,18.96
		c5.83,5.65,11.75,11.21,17.52,16.93c6.08-6.41,12.24-12.74,18.37-19.1c3.64,3.77,7.52,7.3,11.26,10.97
		c-14.56,15.19-29.25,30.27-43.71,45.55c-3.88-3.55-7.59-7.28-11.45-10.85c5.77-6.19,11.77-12.16,17.55-18.34
		c-5.9-5.52-11.58-11.27-17.54-16.72c-5.94,5.96-11.57,12.22-17.58,18.11c-3.7-3.69-7.61-7.15-11.25-10.91
		C-257.49,173.43-242.78,158.39-228.29,143.12z"/>
	<g>
		<path fill="#FFFFFF" d="M-518.97,149.3c47.59-3.93,96.07,2.83,140.64,20.01c63.95,24.49,119.42,70.33,155.59,128.47
			c22.02,35.12,37,74.62,43.83,115.51c7.6,45.43,5.37,92.52-6.74,136.97c-15.23,56.33-46.53,108.13-89.05,148.04
			c-42.36,39.95-95.88,67.96-152.94,79.65c-47.75,9.86-97.77,8.7-144.97-3.55c-69.29-17.75-131.88-59.97-174.62-117.29
			c-22.86-30.4-40.15-64.99-50.8-101.5c-16.34-56.07-16.88-116.64-1.52-172.99c18.28-67.81,59.99-128.91,116.26-170.9
			C-635.86,175.96-578.18,154.06-518.97,149.3z M-523.03,193.15c-26.53,7.94-49.68,26.37-63.57,50.31
			c-12.4,20.94-17.1,46.01-14.14,70.09c-10.64-4.89-21.98-8.31-33.62-9.68c-24.1-3.08-49.14,2.29-69.97,14.75
			c-21.94,13.09-39.2,33.9-47.77,57.98c-7.95,22.03-8.57,46.62-1.81,69.04c6.36,21.34,19.41,40.58,36.77,54.52
			c14,11.28,30.78,19.04,48.42,22.51c-12.93,13.66-22.3,30.64-26.9,48.89c-9.14,34.85,0.4,73.81,24.5,100.57
			c24.15,27.76,62.79,41.9,99.16,36.19c33.94-4.75,64.76-26.55,80.99-56.66c13.49,24.83,36.75,44.21,63.75,52.66
			c25.22,8.12,53.37,6.66,77.64-3.97c27.33-11.82,49.44-35.1,59.71-63.06c9.04-24.17,9.25-51.53,0.43-75.79
			c-5.11-14.4-13.44-27.5-23.73-38.74c28.93-5.37,55.13-23.07,71.38-47.53c12.14-18.11,18.7-39.9,18.59-61.7
			c-0.02-21.27-6.4-42.47-18.08-60.24c-17.33-26.64-46.48-45.32-78.08-49.29c-20.92-2.9-42.56,0.7-61.68,9.56
			c2.58-17.5,0.4-35.57-5.56-52.18c-10.15-28.31-32.43-51.9-60.01-63.83C-470.48,187.05-498.11,185.51-523.03,193.15z"/>
	</g>
	<path fill="#FFFFFF" d="M-776.23,161.54c15.1,14.32,29.85,28.99,44.84,43.41c-3.63,3.88-7.31,7.7-11.11,11.41
		c-5.88-5.88-11.86-11.66-17.87-17.41c-5.62,5.92-11.35,11.72-17.03,17.58c5.98,5.76,11.96,11.53,17.92,17.32
		c-3.49,4.01-7.48,7.54-11.01,11.51c-14.89-14.5-29.79-28.99-44.75-43.42c3.44-4.06,7.43-7.59,11-11.52
		c6.21,6.03,12.46,12.01,18.63,18.09c5.75-5.75,11.42-11.58,17-17.49c-6.15-6.1-12.33-12.17-18.61-18.13
		C-783.44,169.21-779.89,165.33-776.23,161.54z"/>
	<path fill="#FFFFFF" d="M-828.34,221.38c17.62,11.81,35.36,23.44,52.99,35.23c-3.07,4.64-6.18,9.24-9.23,13.89
		c-15.9-0.33-31.82-0.17-47.73-0.53c11.12,7.4,22.21,14.85,33.36,22.2c-3.11,4.67-6.26,9.31-9.29,14.02
		c-17.67-11.77-35.37-23.52-53.06-35.27c3.09-4.6,6.22-9.18,9.19-13.86c15.95,0.24,31.91,0.06,47.86,0.44
		c-11.15-7.36-22.25-14.77-33.37-22.16C-834.53,230.68-831.41,226.04-828.34,221.38z"/>
	<path fill="#FFFFFF" d="M-205.57,260.66c18.3-10.87,36.6-21.75,54.91-32.64c3.63,6.11,7.28,12.21,10.88,18.34
		c-10.15,12-20.26,24.03-30.36,36.06c15.46-3.04,30.87-6.31,46.34-9.28c3.58,6.18,7.29,12.27,10.9,18.43
		c-18.3,10.86-36.61,21.71-54.87,32.63c-2.84-4.66-5.55-9.39-8.41-14.03c11.7-7.07,23.53-13.94,35.24-21.01
		c-14.35,2.63-28.71,5.19-43.04,7.87c-1.86-3.16-3.7-6.32-5.58-9.45c8.98-11.18,18.04-22.29,27.03-33.46
		c-11.57,6.85-23.11,13.76-34.69,20.58C-200,270.01-202.78,265.33-205.57,260.66z"/>
	<g>
		<path fill="#FFFFFF" d="M-508.39,301.69c17.23-9.78,37.63-13.39,57.26-11.38c16.7,2.38,31.93,13.27,39.86,28.13
			c4.64,8.59,5.94,18.68,4.47,28.27c-1.45,13.58-8.28,27.36-20.6,34.11c-17.3,9.43-40.36,6.83-55.12-6.26
			c-5.28-4.79-11.6-9.37-18.99-9.63c-6.14-0.33-11.37,4.04-14.45,8.99c-5.94,9.45-8.26,20.61-10.02,31.48
			c-3.01,18.1-1.8,36.48-2.05,54.74c15.01,11.2,29.25,23.41,42.94,36.19c5.92-15.76,15.42-30.43,28.59-41.07
			c8.78-7.41,18.94-12.96,29.48-17.43c10.65-4.54,22.66-7.84,34.18-4.79c12.99,3.48,22.18,16.21,23.02,29.39
			c0.43,10.23-6.16,20.41-15.84,23.9c-10.45,3.72-22.87,0.97-30.91-6.65c-2.28-2.01-4.71-4.33-7.93-4.48
			c-4.79-0.21-9,2.47-13.2,4.39c-9.52,4.77-19.17,10.37-25.51,19.19c-2.95,3.97-4.55,8.71-5.62,13.49
			c13.42,13.99,26.12,28.92,35.67,45.87c6.13,11.14,11.13,23.57,10.52,36.5c-0.38,10.39-5.85,20.43-14.46,26.26
			c-2.84,1.84-5.81,4.16-9.38,3.88c-35.84-0.03-71.67-0.01-107.5-0.01c0-52.18,0-104.36,0-156.55c-8.92-4.39-18.44-8.15-28.47-8.7
			c-6.95-0.41-14.35,1.6-19.22,6.78c-7.37,7.39-16.31,13.7-26.65,15.96c-9.33,2.11-20.05,0-26.74-7.16
			c-8.99-9.08-9.75-24.05-3.99-35.05c4.99-9.84,15.19-16.1,25.74-18.4c14.57-3.21,29.72-0.4,43.65,4.26
			c12.49,4.24,24.34,10.19,35.68,16.89c0.02-16.12-0.04-32.24,0.02-48.36c0.61-19.93,3.94-40.22,13.05-58.14
			C-533.75,321.92-522.42,309.58-508.39,301.69z M-465.77,313.23c0,7-0.01,14,0,21c-6.9-0.02-13.81,0-20.71-0.01
			c-0.01,4.01-0.01,8.01,0,12.02c6.9-0.03,13.81-0.01,20.72-0.02c-0.03,6.93,0,13.86-0.02,20.79c4,0,8.01-0.01,12.01,0.01
			c-0.01-6.93,0-13.86,0-20.79c7,0,14-0.02,21.01,0.01c-0.02-4.01-0.02-8.01-0.01-12.02c-7,0.01-14.01,0-21.01,0.01
			c0.01-7.01,0.01-14.01,0-21.01C-457.78,313.23-461.78,313.22-465.77,313.23z M-528.01,484.16c-0.03,40.25,0.01,80.49-0.02,120.73
			c16.45-6.12,31.59-17.74,38.98-33.99c5.75-12.25,6.18-26.34,3.56-39.44c-1.04-4.51-0.7-9.43-2.13-13.75
			C-500.17,505.5-513.74,494.31-528.01,484.16z M-468.67,537.34c-1.01,23.45-1.44,48.4-13.68,69.22c9.89-0.05,20.72-1.52,28.25-8.55
			c6.63-6.18,8.35-16.06,6.45-24.64C-450.41,559.36-459.33,547.71-468.67,537.34z"/>
	</g>
	<path fill="#FFFFFF" d="M-888.04,335.64c6.17-13.99,12.17-28.06,18.35-42.05c3.45,1.47,6.89,2.95,10.35,4.42
		c-3.72,9.09-7.75,18.05-11.67,27.05c3.97,1.74,7.96,3.45,11.92,5.22c3.33-7.46,6.54-14.96,9.79-22.46c3.51,1.46,6.98,3,10.47,4.51
		c-3.22,7.52-6.55,14.99-9.74,22.52c4.63,1.98,9.25,3.99,13.86,6.01c3.93-8.97,7.84-17.94,11.71-26.94
		c3.5,1.48,6.97,3.02,10.46,4.53c-6.06,14.01-12.15,28.02-18.27,42.01C-849.91,352.26-868.94,343.86-888.04,335.64z"/>
	<path fill="#FFFFFF" d="M-896.7,304.38c5.34-2.57,15.89-7.95,15.89-7.95s-3.03,7.45-4.56,11.16c-2.41,1.09-4.82,2.15-7.23,3.21
		c0.86,2.46,1.71,4.93,2.59,7.4c-1.6,3.58-4.76,10.75-4.76,10.75l-5.14-16.67C-899.91,312.28-897.82,306.99-896.7,304.38z"/>
	<g>
		<path fill="#FFFFFF" d="M-163.62,332c22.21,2.14,44.43,4.31,66.66,6.29c1.85,6.08,3.6,12.2,5.31,18.32
			c-17.71,13.61-35.32,27.35-53,40.99c-1.76-5.98-3.45-11.98-5.22-17.95c3.42-2.57,6.88-5.06,10.34-7.57
			c-1.96-7.11-4.09-14.16-6.1-21.25c-4.28-0.34-8.57-0.64-12.85-0.91C-160.17,343.94-161.96,337.98-163.62,332z M-133.57,351.59
			c1.29,4.43,2.52,8.87,3.88,13.28c5.49-3.99,10.96-8,16.44-12.01C-120.03,352.5-126.8,351.96-133.57,351.59z"/>
	</g>
	<path fill="#FFFFFF" d="M-810.03,334.27c3.49,1.5,6.98,3,10.44,4.56c-2.16,5.07-4.39,10.12-6.57,15.19
		c-3.46-1.55-6.93-3.07-10.42-4.53C-814.46,344.39-812.19,339.36-810.03,334.27z"/>
	<g>
		<path fill="#FFFFFF" d="M-891.43,365.66c7.77-6.77,22.42-2.9,24.25,7.78c1.56-3.48,3.82-6.93,7.53-8.37
			c7.32-2.89,16.79-0.13,20.81,6.83c3.53,6.12,3.45,13.52,2.58,20.32c-1.34,9.22-2.87,18.41-4.2,27.64
			c-21.33-3.25-42.65-6.59-63.98-9.85c1.21-8.23,2.47-16.46,3.79-24.67C-899.33,378.2-897.03,370.64-891.43,365.66z M-886.54,381.39
			c-2.96,4.07-2.87,9.36-3.78,14.11c4.99,0.77,9.97,1.51,14.95,2.32c0.49-4.69,2.12-9.49,0.73-14.16
			C-875.86,378.62-883.5,377.28-886.54,381.39z M-862.14,383.84c-2.23,4.85-2.16,10.34-3.18,15.51c5.24,0.82,10.49,1.57,15.72,2.45
			c0.48-5.39,2.38-10.76,1.56-16.18C-849.17,379.24-859.37,378.14-862.14,383.84z"/>
	</g>
	<path fill="#FFFFFF" d="M-144.58,404.58c20.67-3.46,41.34-6.99,61.99-10.59c0.96,5.76,2.06,11.5,2.85,17.29
		c-20.65,3.44-41.28,6.97-61.89,10.57C-142.64,416.09-143.61,410.33-144.58,404.58z"/>
	<g>
		<path fill="#FFFFFF" d="M-880.87,617.16c19.05-8.34,38.11-16.67,57.15-25.04c3.13,7.1,6.23,14.2,9.34,21.31
			c3.01,7.24,5.62,15.46,3.28,23.26c-2.87,9.53-16.72,13.28-23.56,5.68c0.16,3.26,0.61,6.81-1.07,9.8
			c-2.7,5.32-8.97,7.97-14.72,7.85c-4.31-0.06-8.28-2.33-11.25-5.32c-4.83-4.67-7.52-10.96-10.16-17.01
			C-874.87,630.85-877.82,623.98-880.87,617.16z M-840.82,617.58c2.14,4.4,3.41,9.66,7.48,12.76c4.01,3.07,10.52-0.71,10.33-5.64
			c-0.44-4.62-2.76-8.73-4.54-12.93C-831.98,613.69-836.41,615.62-840.82,617.58z M-863.81,627.59c1.59,3.58,3.02,7.23,4.75,10.75
			c1.26,2.44,3.06,5.03,5.92,5.65c4.58,0.65,10.01-3.48,8.83-8.43c-1.03-4.97-3.67-9.4-5.59-14.06
			C-854.52,623.57-859.15,625.62-863.81,627.59z"/>
	</g>
	<path fill="#FFFFFF" d="M-108.04,599.34c3.57,1.43,7.11,2.96,10.66,4.46c-6.31,14.97-12.8,29.87-19.15,44.82
		c-19.41-8.24-38.78-16.57-58.16-24.88c2.2-5.34,4.47-10.64,6.79-15.93c15.84,6.8,31.69,13.6,47.54,20.38
		C-116.29,618.55-112.09,608.98-108.04,599.34z"/>
	<g>
		<path fill="#FFFFFF" d="M-196.88,661.62c3.37-5.58,6.76-11.15,10.17-16.7c22.19,3.55,44.38,7.13,66.57,10.64
			c-3.41,5.46-6.72,10.99-10.08,16.49c-4.22-0.83-8.44-1.64-12.66-2.41c-3.93,6.52-7.94,13-11.85,19.53
			c2.65,3.35,5.28,6.73,7.97,10.05c-3.31,5.52-6.7,10.99-10.02,16.5C-170.25,697.76-183.5,679.64-196.88,661.62z M-174.86,663.59
			c4.21,5.31,8.37,10.67,12.61,15.97c2.48-4.09,4.96-8.17,7.46-12.25C-161.5,666.14-168.17,664.8-174.86,663.59z"/>
	</g>
	<g>
		<path fill="#FFFFFF" d="M-854.48,672.69c22.31-4.87,44.63-9.72,66.93-14.62c3.49,5.24,6.87,10.56,10.38,15.8
			c-13.35,18.59-26.75,37.15-40.1,55.75c-3.35-5.26-6.85-10.43-10.23-15.67c2.73-3.42,5.37-6.92,8.03-10.4
			c-3.98-6.18-8.02-12.33-11.99-18.51c-4.22,1.06-8.45,2.09-12.66,3.22C-847.74,683.18-851.02,677.88-854.48,672.69z
			 M-819.41,682.12c2.5,3.8,4.97,7.62,7.42,11.47c4.22-5.42,8.32-10.92,12.48-16.38C-806.16,678.78-812.79,680.4-819.41,682.12z"/>
	</g>
	<path fill="#FFFFFF" d="M-241.88,716.67c12.09-13.85,24.12-27.75,36.18-41.62c3.24,2.81,6.43,5.69,9.67,8.51
		c-4.19,4.82-8.38,9.65-12.56,14.48c13.17,11.44,26.35,22.88,39.52,34.33c-3.77,4.31-7.49,8.65-11.27,12.94
		c-13.17-11.45-26.35-22.88-39.53-34.33c-4.09,4.74-8.17,9.5-12.32,14.19C-235.47,722.39-238.64,719.49-241.88,716.67z"/>
	<path fill="#FFFFFF" d="M-773.41,702.68c9.44-4.05,20.86-1.53,28.29,5.4c6.82,6.38,13.03,14.69,13.32,24.4
		c0.21,6.42-3.46,12.22-8.17,16.29c-3.73-4.25-7.65-8.32-11.39-12.56c2.5-2.74,5.59-6.21,4.3-10.24
		c-1.98-5.47-7.14-11.27-13.55-10.09c-6.12,0.96-10.29,5.91-14.69,9.8c-4.29,4.09-9.75,7.76-11.23,13.86
		c-1.87,6.13,2.85,12.27,8.18,14.79c4.01,2.04,7.94-1.24,10.98-3.57c3.76,4.2,7.61,8.33,11.4,12.53
		c-5.11,4.88-12.24,8.28-19.42,6.57c-9.46-2.22-16.87-9.57-22.01-17.5c-6.69-10.39-5.28-25.33,4.08-33.67
		C-786.81,713.23-781.35,706.15-773.41,702.68z"/>
	<path fill="#FFFFFF" d="M-245.02,718.38c15.11,15.07,29.93,30.45,45.01,45.57c-4.34,3.88-8.36,8.09-12.49,12.19
		c-15.11-15.06-29.93-30.41-44.97-45.55C-253.37,726.46-249.06,722.56-245.02,718.38z"/>
	<path fill="#FFFFFF" d="M-761.65,786.68c12.69-17.42,25.43-34.81,38.12-52.23c4.35,3.11,8.66,6.28,12.96,9.46
		c-5.23,7.32-10.65,14.51-15.87,21.84c6.72,4.78,13.33,9.7,19.99,14.55c5.27-7.27,10.62-14.48,15.87-21.77
		c4.36,3.11,8.69,6.27,12.97,9.5c-12.78,17.34-25.44,34.76-38.14,52.15c-4.36-3.08-8.65-6.26-12.94-9.43
		c5.04-7.01,10.22-13.91,15.23-20.94c-6.68-4.82-13.28-9.74-19.96-14.55c-5.09,6.96-10.21,13.88-15.22,20.89
		C-753.03,793.06-757.33,789.86-761.65,786.68z"/>
	<g>
		<path fill="#FFFFFF" d="M-279.55,747.43c6.25-4.6,14.24-7.69,22.05-5.94c10.77,2.27,18.05,14.65,14.46,25.16
			c-2.87,9.94-12.07,15.64-19.84,21.5c4.44,5.85,8.87,11.71,13.29,17.57c-4.33,3.27-8.66,6.54-12.98,9.82
			c-13.01-17.15-26.01-34.3-38.94-51.51C-294.18,758.51-286.89,752.93-279.55,747.43z M-269.01,755.18
			c-4.74,1.79-8.27,5.66-12.41,8.46c3.79,5.05,7.65,10.05,11.42,15.13c3.9-3.32,8.75-5.73,11.71-10.03
			C-254.11,762.17-261.7,752.74-269.01,755.18z"/>
	</g>
	<path fill="#FFFFFF" d="M-335.58,782.43c7.75-5.63,17.34-10.24,27.16-8.57c5.14,0.76,9.16,4.52,11.75,8.83
		c-4.68,2.93-9.54,5.57-14.24,8.48c-1.79-1.97-3.68-4.5-6.64-4.39c-4.25,0.3-8.34,2.45-11.2,5.58c-1.86,2-2.87,5.24-1.25,7.68
		c1.13,1.83,3.34,2.67,5.43,2.46c10.49-0.45,20.53-5.57,31.16-3.88c8.42,0.94,14.91,9.7,13.55,18.04
		c-1.01,6.49-5.69,11.74-10.69,15.67c-8.22,6.16-18.42,10.82-28.91,9.62c-5.86-0.59-10.28-5.06-13.08-9.92
		c4.7-2.94,9.52-5.68,14.33-8.45c1.91,2.54,4.17,5.43,7.69,5.47c4.91-0.51,9.62-2.99,13-6.57c2.32-2.37,2.37-6.51-0.25-8.67
		c-2.52-2.74-6.59-1.78-9.8-1.22c-8.81,1.85-17.72,4.47-26.82,3.44c-7.59-1.11-13.17-9.05-12.34-16.54
		C-345.78,792.5-341.07,786.58-335.58,782.43z"/>
	<path fill="#FFFFFF" d="M-654.43,781.21c6.56,2.67,13.12,5.35,19.68,8.01c-0.87,15.91-1.87,31.81-2.65,47.73
		c10.42-12.06,21.04-23.94,31.47-35.99c6.65,2.69,13.28,5.47,19.96,8.1c-8.19,19.98-16.3,39.99-24.46,59.99
		c-5.02-2.09-10.05-4.14-15.1-6.15c5.11-12.84,10.44-25.58,15.57-38.4c-9.96,10.81-19.77,21.76-29.71,32.59
		c-3.39-1.37-6.78-2.73-10.15-4.13c0.55-14.53,1.03-29.06,1.63-43.59c-5.31,12.6-10.3,25.33-15.56,37.95
		c-5.02-2.11-10.09-4.11-15.12-6.18C-670.68,821.18-662.59,801.18-654.43,781.21z"/>
	<g>
		<path fill="#FFFFFF" d="M-378.95,800.26c9.06-2.08,19.34-0.09,26.19,6.44c4.54,4.29,6.56,10.35,9.19,15.86
			c1.78,3.76,3.47,7.67,3.72,11.89c0.9,9.65-4.25,19.25-12.07,24.75c-9.03,6.45-20.9,10.13-31.83,6.83
			c-7.2-2-13.18-7.48-16.13-14.31c-3.6-8.24-8.99-16.72-6.81-26.13C-404.24,812.1-391.61,803.2-378.95,800.26z M-380.16,813
			c-4.55,1.41-8.97,4.65-10.05,9.54c-1.66,5.36,1.06,10.63,3.25,15.4c2.34,4.78,3.93,10.32,8.37,13.66
			c7.61,6.51,21.26,0.72,22.24-9.14c0.76-5.12-1.88-9.82-3.9-14.32c-2.08-4.34-3.65-9.2-7.4-12.45
			C-370.96,812.66-375.9,811.35-380.16,813z"/>
	</g>
	<g>
		<path fill="#FFFFFF" d="M-562.52,813.15c6.4,1.13,12.81,2.24,19.22,3.39c4.78,21.93,9.46,43.88,14.26,65.81
			c-6.33-1.1-12.64-2.24-18.97-3.33c-0.93-4.17-1.4-8.44-2.47-12.58c-7.4-1.65-14.94-2.66-22.39-4.08
			c-2.2,3.66-4.37,7.35-6.51,11.05c-6.37-1.05-12.72-2.21-19.07-3.34C-586.44,851.11-574.55,832.09-562.52,813.15z M-566.73,851.9
			c4.69,0.85,9.38,1.68,14.08,2.48c-1.18-6.7-2.49-13.38-3.71-20.07C-559.83,840.16-563.25,846.04-566.73,851.9z"/>
	</g>
	<path fill="#FFFFFF" d="M-429.16,814.43c5.09-0.47,10.15-1.15,15.24-1.55c2.22,21.43,4.54,42.84,6.87,64.24
		c-5.09,0.53-10.17,1.01-15.25,1.64c-0.92-8.63-1.8-17.25-2.79-25.86c-7.86,1.01-15.77,1.68-23.64,2.62
		c1,8.54,1.75,17.11,2.83,25.64c-5.06,0.74-10.17,1.11-15.24,1.78c-2.45-21.43-4.62-42.88-6.95-64.31
		c5.07-0.56,10.15-1.05,15.21-1.69c1.04,8.96,1.91,17.94,2.95,26.91c7.86-0.96,15.75-1.68,23.62-2.6
		C-427.24,832.31-428.25,823.37-429.16,814.43z"/>
	<path fill="#FFFFFF" d="M-520.01,819.23c5.75-0.06,11.5,0.01,17.25,0.33c-0.21,21.22-0.38,42.44-0.76,63.66
		c-5.79,0.1-11.58-0.13-17.37-0.27C-520.62,861.71-520.43,840.46-520.01,819.23z"/>
</g>
<g>
	<path fill="#008000" d="M347.57,50.55l8.53-2.27l16.4,7.86c0,0-8.08,2.14-12.14,3.11c-2.26-1.33-4.54-2.62-6.81-3.92
		c-1.51,2.22-3.03,4.42-4.56,6.62c-3.94,0.9-11.85,2.58-11.85,2.58L347.57,50.55z"/>
	<path fill="#008000" d="M446.74,52.78c5.74-0.31,11.49-0.46,17.24-0.83c1,20.76,1.89,41.52,2.8,62.28
		c-5.66,0.17-11.32,0.59-16.98,0.72c-9.93-12.34-19.18-25.27-28.85-37.83c0.55,13.04,1.14,26.07,1.75,39.11
		c-5.78,0.19-11.55,0.47-17.33,0.69c-0.82-20.73-1.88-41.45-2.69-62.18c5.74-0.28,11.48-0.51,17.22-0.79
		c9.55,12.6,19.04,25.24,28.65,37.8C447.91,78.76,447.48,65.76,446.74,52.78z"/>
	<g>
		<path fill="#008000" d="M518.29,53.2c7.62,0.93,15.19,2.3,22.8,3.37c7.21,1.19,14.76,3.14,20.29,8.19
			c5.85,5.3,5.77,15.42,0.27,20.93c-1.81,1.84-4.31,2.68-6.66,3.58c2.28,1.18,4.77,2.27,6.41,4.33c5.73,7.24,2.67,19.42-5.65,23.3
			c-6.04,2.99-13.08,2.89-19.6,1.97c-9.07-1.34-18.12-2.77-27.18-4.16C511.94,94.19,515.24,73.71,518.29,53.2z M530.62,81.16
			c4.96,0.55,10.22,2.44,15.07,0.39c4.24-1.94,4.88-8.67,0.9-11.24c-4.07-2.65-9.14-2.67-13.79-3.49
			C532.07,71.6,531.33,76.38,530.62,81.16z M529.09,90.91c-0.73,5.03-1.52,10.05-2.25,15.08c5.32,0.6,10.64,2.24,16.03,1.58
			c6.14-0.97,7.35-10.69,1.92-13.42C539.91,91.81,534.33,91.85,529.09,90.91z"/>
	</g>
	<path fill="#008000" d="M334.69,72.79c15.33-3.87,30.62-7.94,45.97-11.71c0.89,3.73,1.88,7.43,2.84,11.13
		c-9.81,2.57-19.65,5.07-29.48,7.58c1.1,4.31,2.18,8.62,3.33,12.92c8.17-2.14,16.35-4.2,24.52-6.32c0.97,3.74,1.9,7.49,2.86,11.23
		c-8.18,2.07-16.32,4.26-24.52,6.23c1.21,5.03,2.56,10.03,3.82,15.05c9.81-2.47,19.59-5.03,29.39-7.51
		c1.03,3.72,1.96,7.45,2.93,11.18c-15.28,3.94-30.56,7.87-45.86,11.74C345.16,113.82,339.98,93.29,334.69,72.79z"/>
	<g>
		<path fill="#008000" d="M566.74,124.3c15.01-16.48,30-32.97,45.1-49.37c5.71,2.33,11.47,4.57,17.22,6.8
			c-0.76,13.41,0.04,26.84-0.56,40.25c-0.06,8.89,0,17.78-0.02,26.66c-5.54-2.34-11.26-4.24-16.75-6.68
			c-0.32-4.27,0.25-8.54,0.33-12.81c-6.68-2.63-13.32-5.33-19.99-7.97c-2.82,3.22-5.61,6.47-8.39,9.72
			C578,128.76,572.39,126.49,566.74,124.3z M599.92,112.03c4.2,1.67,8.39,3.37,12.6,5.02c-0.06-6.68,0.45-13.35,0.49-20.03
			C608.59,101.98,604.33,107.07,599.92,112.03z"/>
	</g>
	<path fill="#008000" d="M299.89,89.53c5.06-2.23,10.07-4.54,15.11-6.8c8.51,18.97,17.06,37.92,25.62,56.87
		c-5.01,2.29-10.05,4.52-15.06,6.79C316.93,127.47,308.43,108.49,299.89,89.53z"/>
	<path fill="#008000" d="M270.48,102.87c5.09-2.89,10.1-5.95,15.27-8.69c3.67,21.79,7.36,43.57,11.16,65.33
		c-5.11,3.22-10.39,6.15-15.65,9.12c-17.04-14.1-34-28.3-51.08-42.35c4.98-3.11,10.14-5.9,15.19-8.89
		c12.02,11.31,24.31,22.34,36.18,33.82C277.7,135.13,274.22,118.97,270.48,102.87z"/>
	<path fill="#008000" d="M660.27,115.28c5.14-5.14,12.25-8.58,19.65-7.9c9.17,0.46,17.18,6.11,22.83,13.03
		c5.15,6.04,9.58,13.43,9.51,21.62c-0.14,5.54-3.31,10.41-7.26,14.06c-4.1-4.15-7.98-8.51-11.87-12.84
		c2.37-2.74,5.25-6.31,3.69-10.17c-2.2-5.2-6.66-10.7-12.82-10.64c-5.86,0.22-10.17,4.64-14.15,8.41
		c-4.2,4.07-9.72,7.57-11.24,13.59c-1.78,6.65,3.36,13.06,9.09,15.77c3.77,1.73,7.3-1.13,10.19-3.24c3.99,4.25,7.89,8.58,11.81,12.9
		c-4.63,4.38-11.08,7.45-17.56,5.98c-9.45-2-16.8-9.12-22.43-16.59c-5.38-7.41-8.03-17.35-4.82-26.19
		C647.56,125.36,654.72,120.77,660.27,115.28z"/>
	<path fill="#008000" d="M367.91,139.11c5.41-1.49,10.81-3.05,16.21-4.61c1.03,3.73,2.09,7.45,3.2,11.15
		c-5.41,1.55-10.83,3.07-16.23,4.67C370.04,146.58,368.96,142.85,367.91,139.11z"/>
	<path fill="#008000" d="M587.49,141.62l13.44,8.49c0,0-3.77,6.31-5.59,9.51c-4.55-2.73-9.07-5.5-13.67-8.14
		C583.56,148.16,587.49,141.62,587.49,141.62z"/>
	<path fill="#008000" d="M736.21,142.62c3.9,3.57,7.57,7.38,11.47,10.96c-6.18,6.25-12.11,12.75-18.33,18.96
		c5.83,5.65,11.75,11.21,17.52,16.93c6.08-6.41,12.24-12.74,18.37-19.1c3.64,3.77,7.52,7.3,11.26,10.97
		c-14.56,15.19-29.25,30.27-43.71,45.55c-3.88-3.55-7.59-7.28-11.45-10.85c5.77-6.19,11.77-12.16,17.55-18.34
		c-5.9-5.52-11.58-11.27-17.54-16.72c-5.94,5.96-11.57,12.22-17.58,18.11c-3.7-3.69-7.61-7.15-11.25-10.91
		C707.01,172.93,721.72,157.89,736.21,142.62z"/>
	<g>
		<path fill="#008000" d="M445.53,148.8c47.59-3.93,96.07,2.83,140.64,20.01c63.95,24.49,119.42,70.33,155.59,128.47
			c22.02,35.12,37,74.62,43.83,115.51c7.6,45.43,5.37,92.52-6.74,136.97c-15.23,56.33-46.53,108.13-89.05,148.04
			c-42.36,39.95-95.88,67.96-152.94,79.65c-47.75,9.86-97.77,8.7-144.97-3.55c-69.29-17.75-131.88-59.97-174.62-117.29
			c-22.86-30.4-40.15-64.99-50.8-101.5c-16.34-56.07-16.88-116.64-1.52-172.99c18.28-67.81,59.99-128.91,116.26-170.9
			C328.64,175.46,386.32,153.56,445.53,148.8z M441.47,192.65c-26.53,7.94-49.68,26.37-63.57,50.31
			c-12.4,20.94-17.1,46.01-14.14,70.09c-10.64-4.89-21.98-8.31-33.62-9.68c-24.1-3.08-49.14,2.29-69.97,14.75
			c-21.94,13.09-39.2,33.9-47.77,57.98c-7.95,22.03-8.57,46.62-1.81,69.04c6.36,21.34,19.41,40.58,36.77,54.52
			c14,11.28,30.78,19.04,48.42,22.51c-12.93,13.66-22.3,30.64-26.9,48.89c-9.14,34.85,0.4,73.81,24.5,100.57
			c24.15,27.76,62.79,41.9,99.16,36.19c33.94-4.75,64.76-26.55,80.99-56.66c13.49,24.83,36.75,44.21,63.75,52.66
			c25.22,8.12,53.37,6.66,77.64-3.97c27.33-11.82,49.44-35.1,59.71-63.06c9.04-24.17,9.25-51.53,0.43-75.79
			c-5.11-14.4-13.44-27.5-23.73-38.74c28.93-5.37,55.13-23.07,71.38-47.53c12.14-18.11,18.7-39.9,18.59-61.7
			c-0.02-21.27-6.4-42.47-18.08-60.24c-17.33-26.64-46.48-45.32-78.08-49.29c-20.92-2.9-42.56,0.7-61.68,9.56
			c2.58-17.5,0.4-35.57-5.56-52.18c-10.15-28.31-32.43-51.9-60.01-63.83C494.02,186.55,466.39,185.01,441.47,192.65z"/>
	</g>
	<path fill="#008000" d="M188.27,161.04c15.1,14.32,29.85,28.99,44.84,43.41c-3.63,3.88-7.31,7.7-11.11,11.41
		c-5.88-5.88-11.86-11.66-17.87-17.41c-5.62,5.92-11.35,11.72-17.03,17.58c5.98,5.76,11.96,11.53,17.92,17.32
		c-3.49,4.01-7.48,7.54-11.01,11.51c-14.89-14.5-29.79-28.99-44.75-43.42c3.44-4.06,7.43-7.59,11-11.52
		c6.21,6.03,12.46,12.01,18.63,18.09c5.75-5.75,11.42-11.58,17-17.49c-6.15-6.1-12.33-12.17-18.61-18.13
		C181.06,168.71,184.61,164.83,188.27,161.04z"/>
	<path fill="#008000" d="M136.16,220.88c17.62,11.81,35.36,23.44,52.99,35.23c-3.07,4.64-6.18,9.24-9.23,13.89
		c-15.9-0.33-31.82-0.17-47.73-0.53c11.12,7.4,22.21,14.85,33.36,22.2c-3.11,4.67-6.26,9.31-9.29,14.02
		c-17.67-11.77-35.37-23.52-53.06-35.27c3.09-4.6,6.22-9.18,9.19-13.86c15.95,0.24,31.91,0.06,47.86,0.44
		c-11.15-7.36-22.25-14.77-33.37-22.16C129.97,230.18,133.09,225.54,136.16,220.88z"/>
	<path fill="#008000" d="M758.93,260.16c18.3-10.87,36.6-21.75,54.91-32.64c3.63,6.11,7.28,12.21,10.88,18.34
		c-10.15,12-20.26,24.03-30.36,36.06c15.46-3.04,30.87-6.31,46.34-9.28c3.58,6.18,7.29,12.27,10.9,18.43
		c-18.3,10.86-36.61,21.71-54.87,32.63c-2.84-4.66-5.55-9.39-8.41-14.03c11.7-7.07,23.53-13.94,35.24-21.01
		c-14.35,2.63-28.71,5.19-43.04,7.87c-1.86-3.16-3.7-6.32-5.58-9.45c8.98-11.18,18.04-22.29,27.03-33.46
		c-11.57,6.85-23.11,13.76-34.69,20.58C764.5,269.51,761.72,264.83,758.93,260.16z"/>
	<g>
		<path fill="#008000" d="M456.11,301.19c17.23-9.78,37.63-13.39,57.26-11.38c16.7,2.38,31.93,13.27,39.86,28.13
			c4.64,8.59,5.94,18.68,4.47,28.27c-1.45,13.58-8.28,27.36-20.6,34.11c-17.3,9.43-40.36,6.83-55.12-6.26
			c-5.28-4.79-11.6-9.37-18.99-9.63c-6.14-0.33-11.37,4.04-14.45,8.99c-5.94,9.45-8.26,20.61-10.02,31.48
			c-3.01,18.1-1.8,36.48-2.05,54.74c15.01,11.2,29.25,23.41,42.94,36.19c5.92-15.76,15.42-30.43,28.59-41.07
			c8.78-7.41,18.94-12.96,29.48-17.43c10.65-4.54,22.66-7.84,34.18-4.79c12.99,3.48,22.18,16.21,23.02,29.39
			c0.43,10.23-6.16,20.41-15.84,23.9c-10.45,3.72-22.87,0.97-30.91-6.65c-2.28-2.01-4.71-4.33-7.93-4.48
			c-4.79-0.21-9,2.47-13.2,4.39c-9.52,4.77-19.17,10.37-25.51,19.19c-2.95,3.97-4.55,8.71-5.62,13.49
			c13.42,13.99,26.12,28.92,35.67,45.87c6.13,11.14,11.13,23.57,10.52,36.5c-0.38,10.39-5.85,20.43-14.46,26.26
			c-2.84,1.84-5.81,4.16-9.38,3.88c-35.84-0.03-71.67-0.01-107.5-0.01c0-52.18,0-104.36,0-156.55c-8.92-4.39-18.44-8.15-28.47-8.7
			c-6.95-0.41-14.35,1.6-19.22,6.78c-7.37,7.39-16.31,13.7-26.65,15.96c-9.33,2.11-20.05,0-26.74-7.16
			c-8.99-9.08-9.75-24.05-3.99-35.05c4.99-9.84,15.19-16.1,25.74-18.4c14.57-3.21,29.72-0.4,43.65,4.26
			c12.49,4.24,24.34,10.19,35.68,16.89c0.02-16.12-0.04-32.24,0.02-48.36c0.61-19.93,3.94-40.22,13.05-58.14
			C430.75,321.42,442.08,309.08,456.11,301.19z M498.73,312.73c0,7-0.01,14,0,21c-6.9-0.02-13.81,0-20.71-0.01
			c-0.01,4.01-0.01,8.01,0,12.02c6.9-0.03,13.81-0.01,20.72-0.02c-0.03,6.93,0,13.86-0.02,20.79c4,0,8.01-0.01,12.01,0.01
			c-0.01-6.93,0-13.86,0-20.79c7,0,14-0.02,21.01,0.01c-0.02-4.01-0.02-8.01-0.01-12.02c-7,0.01-14.01,0-21.01,0.01
			c0.01-7.01,0.01-14.01,0-21.01C506.72,312.73,502.72,312.72,498.73,312.73z M436.49,483.66c-0.03,40.25,0.01,80.49-0.02,120.73
			c16.45-6.12,31.59-17.74,38.98-33.99c5.75-12.25,6.18-26.34,3.56-39.44c-1.04-4.51-0.7-9.43-2.13-13.75
			C464.33,505,450.76,493.81,436.49,483.66z M495.83,536.84c-1.01,23.45-1.44,48.4-13.68,69.22c9.89-0.05,20.72-1.52,28.25-8.55
			c6.63-6.18,8.35-16.06,6.45-24.64C514.09,558.86,505.17,547.21,495.83,536.84z"/>
	</g>
	<path fill="#008000" d="M76.46,335.14c6.17-13.99,12.17-28.06,18.35-42.05c3.45,1.47,6.89,2.95,10.35,4.42
		c-3.72,9.09-7.75,18.05-11.67,27.05c3.97,1.74,7.96,3.45,11.92,5.22c3.33-7.46,6.54-14.96,9.79-22.46c3.51,1.46,6.98,3,10.47,4.51
		c-3.22,7.52-6.55,14.99-9.74,22.52c4.63,1.98,9.25,3.99,13.86,6.01c3.93-8.97,7.84-17.94,11.71-26.94
		c3.5,1.48,6.97,3.02,10.46,4.53c-6.06,14.01-12.15,28.02-18.27,42.01C114.59,351.76,95.56,343.36,76.46,335.14z"/>
	<path fill="#008000" d="M67.8,303.88c5.34-2.57,15.89-7.95,15.89-7.95s-3.03,7.45-4.56,11.16c-2.41,1.09-4.82,2.15-7.23,3.21
		c0.86,2.46,1.71,4.93,2.59,7.4c-1.6,3.58-4.76,10.75-4.76,10.75l-5.14-16.67C64.59,311.78,66.68,306.49,67.8,303.88z"/>
	<g>
		<path fill="#008000" d="M800.88,331.5c22.21,2.14,44.43,4.31,66.66,6.29c1.85,6.08,3.6,12.2,5.31,18.32
			c-17.71,13.61-35.32,27.35-53,40.99c-1.76-5.98-3.45-11.98-5.22-17.95c3.42-2.57,6.88-5.06,10.34-7.57
			c-1.96-7.11-4.09-14.16-6.1-21.25c-4.28-0.34-8.57-0.64-12.85-0.91C804.33,343.44,802.54,337.48,800.88,331.5z M830.93,351.09
			c1.29,4.43,2.52,8.87,3.88,13.28c5.49-3.99,10.96-8,16.44-12.01C844.47,352,837.7,351.46,830.93,351.09z"/>
	</g>
	<path fill="#008000" d="M154.47,333.77c3.49,1.5,6.98,3,10.44,4.56c-2.16,5.07-4.39,10.12-6.57,15.19
		c-3.46-1.55-6.93-3.07-10.42-4.53C150.04,343.89,152.31,338.86,154.47,333.77z"/>
	<g>
		<path fill="#008000" d="M73.07,365.16c7.77-6.77,22.42-2.9,24.25,7.78c1.56-3.48,3.82-6.93,7.53-8.37
			c7.32-2.89,16.79-0.13,20.81,6.83c3.53,6.12,3.45,13.52,2.58,20.32c-1.34,9.22-2.87,18.41-4.2,27.64
			c-21.33-3.25-42.65-6.59-63.98-9.85c1.21-8.23,2.47-16.46,3.79-24.67C65.17,377.7,67.47,370.14,73.07,365.16z M77.96,380.89
			c-2.96,4.07-2.87,9.36-3.78,14.11c4.99,0.77,9.97,1.51,14.95,2.32c0.49-4.69,2.12-9.49,0.73-14.16
			C88.64,378.12,81,376.78,77.96,380.89z M102.36,383.34c-2.23,4.85-2.16,10.34-3.18,15.51c5.24,0.82,10.49,1.57,15.72,2.45
			c0.48-5.39,2.38-10.76,1.56-16.18C115.33,378.74,105.13,377.64,102.36,383.34z"/>
	</g>
	<path fill="#008000" d="M819.92,404.08c20.67-3.46,41.34-6.99,61.99-10.59c0.96,5.76,2.06,11.5,2.85,17.29
		c-20.65,3.44-41.28,6.97-61.89,10.57C821.86,415.59,820.89,409.83,819.92,404.08z"/>
	<g>
		<path fill="#008000" d="M83.63,616.66c19.05-8.34,38.11-16.67,57.15-25.04c3.13,7.1,6.23,14.2,9.34,21.31
			c3.01,7.24,5.62,15.46,3.28,23.26c-2.87,9.53-16.72,13.28-23.56,5.68c0.16,3.26,0.61,6.81-1.07,9.8
			c-2.7,5.32-8.97,7.97-14.72,7.85c-4.31-0.06-8.28-2.33-11.25-5.32c-4.83-4.67-7.52-10.96-10.16-17.01
			C89.63,630.35,86.68,623.48,83.63,616.66z M123.68,617.08c2.14,4.4,3.41,9.66,7.48,12.76c4.01,3.07,10.52-0.71,10.33-5.64
			c-0.44-4.62-2.76-8.73-4.54-12.93C132.52,613.19,128.09,615.12,123.68,617.08z M100.69,627.09c1.59,3.58,3.02,7.23,4.75,10.75
			c1.26,2.44,3.06,5.03,5.92,5.65c4.58,0.65,10.01-3.48,8.83-8.43c-1.03-4.97-3.67-9.4-5.59-14.06
			C109.98,623.07,105.35,625.12,100.69,627.09z"/>
	</g>
	<path fill="#008000" d="M856.46,598.84c3.57,1.43,7.11,2.96,10.66,4.46c-6.31,14.97-12.8,29.87-19.15,44.82
		c-19.41-8.24-38.78-16.57-58.16-24.88c2.2-5.34,4.47-10.64,6.79-15.93c15.84,6.8,31.69,13.6,47.54,20.38
		C848.21,618.05,852.41,608.48,856.46,598.84z"/>
	<g>
		<path fill="#008000" d="M767.62,661.12c3.37-5.58,6.76-11.15,10.17-16.7c22.19,3.55,44.38,7.13,66.57,10.64
			c-3.41,5.46-6.72,10.99-10.08,16.49c-4.22-0.83-8.44-1.64-12.66-2.41c-3.93,6.52-7.94,13-11.85,19.53
			c2.65,3.35,5.28,6.73,7.97,10.05c-3.31,5.52-6.7,10.99-10.02,16.5C794.25,697.26,781,679.14,767.62,661.12z M789.64,663.09
			c4.21,5.31,8.37,10.67,12.61,15.97c2.48-4.09,4.96-8.17,7.46-12.25C803,665.64,796.33,664.3,789.64,663.09z"/>
	</g>
	<g>
		<path fill="#008000" d="M110.02,672.19c22.31-4.87,44.63-9.72,66.93-14.62c3.49,5.24,6.87,10.56,10.38,15.8
			c-13.35,18.59-26.75,37.15-40.1,55.75c-3.35-5.26-6.85-10.43-10.23-15.67c2.73-3.42,5.37-6.92,8.03-10.4
			c-3.98-6.18-8.02-12.33-11.99-18.51c-4.22,1.06-8.45,2.09-12.66,3.22C116.76,682.68,113.48,677.38,110.02,672.19z M145.09,681.62
			c2.5,3.8,4.97,7.62,7.42,11.47c4.22-5.42,8.32-10.92,12.48-16.38C158.34,678.28,151.71,679.9,145.09,681.62z"/>
	</g>
	<path fill="#008000" d="M722.62,716.17c12.09-13.85,24.12-27.75,36.18-41.62c3.24,2.81,6.43,5.69,9.67,8.51
		c-4.19,4.82-8.38,9.65-12.56,14.48c13.17,11.44,26.35,22.88,39.52,34.33c-3.77,4.31-7.49,8.65-11.27,12.94
		c-13.17-11.45-26.35-22.88-39.53-34.33c-4.09,4.74-8.17,9.5-12.32,14.19C729.03,721.89,725.86,718.99,722.62,716.17z"/>
	<path fill="#008000" d="M191.09,702.18c9.44-4.05,20.86-1.53,28.29,5.4c6.82,6.38,13.03,14.69,13.32,24.4
		c0.21,6.42-3.46,12.22-8.17,16.29c-3.73-4.25-7.65-8.32-11.39-12.56c2.5-2.74,5.59-6.21,4.3-10.24
		c-1.98-5.47-7.14-11.27-13.55-10.09c-6.12,0.96-10.29,5.91-14.69,9.8c-4.29,4.09-9.75,7.76-11.23,13.86
		c-1.87,6.13,2.85,12.27,8.18,14.79c4.01,2.04,7.94-1.24,10.98-3.57c3.76,4.2,7.61,8.33,11.4,12.53
		c-5.11,4.88-12.24,8.28-19.42,6.57c-9.46-2.22-16.87-9.57-22.01-17.5c-6.69-10.39-5.28-25.33,4.08-33.67
		C177.69,712.73,183.15,705.65,191.09,702.18z"/>
	<path fill="#008000" d="M719.48,717.88c15.11,15.07,29.93,30.45,45.01,45.57c-4.34,3.88-8.36,8.09-12.49,12.19
		c-15.11-15.06-29.93-30.41-44.97-45.55C711.13,725.96,715.44,722.06,719.48,717.88z"/>
	<path fill="#008000" d="M202.85,786.18c12.69-17.42,25.43-34.81,38.12-52.23c4.35,3.11,8.66,6.28,12.96,9.46
		c-5.23,7.32-10.65,14.51-15.87,21.84c6.72,4.78,13.33,9.7,19.99,14.55c5.27-7.27,10.62-14.48,15.87-21.77
		c4.36,3.11,8.69,6.27,12.97,9.5c-12.78,17.34-25.44,34.76-38.14,52.15c-4.36-3.08-8.65-6.26-12.94-9.43
		c5.04-7.01,10.22-13.91,15.23-20.94c-6.68-4.82-13.28-9.74-19.96-14.55c-5.09,6.96-10.21,13.88-15.22,20.89
		C211.47,792.56,207.17,789.36,202.85,786.18z"/>
	<g>
		<path fill="#008000" d="M684.95,746.93c6.25-4.6,14.24-7.69,22.05-5.94c10.77,2.27,18.05,14.65,14.46,25.16
			c-2.87,9.94-12.07,15.64-19.84,21.5c4.44,5.85,8.87,11.71,13.29,17.57c-4.33,3.27-8.66,6.54-12.98,9.82
			c-13.01-17.15-26.01-34.3-38.94-51.51C670.32,758.01,677.61,752.43,684.95,746.93z M695.49,754.68
			c-4.74,1.79-8.27,5.66-12.41,8.46c3.79,5.05,7.65,10.05,11.42,15.13c3.9-3.32,8.75-5.73,11.71-10.03
			C710.39,761.67,702.8,752.24,695.49,754.68z"/>
	</g>
	<path fill="#008000" d="M628.92,781.93c7.75-5.63,17.34-10.24,27.16-8.57c5.14,0.76,9.16,4.52,11.75,8.83
		c-4.68,2.93-9.54,5.57-14.24,8.48c-1.79-1.97-3.68-4.5-6.64-4.39c-4.25,0.3-8.34,2.45-11.2,5.58c-1.86,2-2.87,5.24-1.25,7.68
		c1.13,1.83,3.34,2.67,5.43,2.46c10.49-0.45,20.53-5.57,31.16-3.88c8.42,0.94,14.91,9.7,13.55,18.04
		c-1.01,6.49-5.69,11.74-10.69,15.67c-8.22,6.16-18.42,10.82-28.91,9.62c-5.86-0.59-10.28-5.06-13.08-9.92
		c4.7-2.94,9.52-5.68,14.33-8.45c1.91,2.54,4.17,5.43,7.69,5.47c4.91-0.51,9.62-2.99,13-6.57c2.32-2.37,2.37-6.51-0.25-8.67
		c-2.52-2.74-6.59-1.78-9.8-1.22c-8.81,1.85-17.72,4.47-26.82,3.44c-7.59-1.11-13.17-9.05-12.34-16.54
		C618.72,792,623.43,786.08,628.92,781.93z"/>
	<path fill="#008000" d="M310.07,780.71c6.56,2.67,13.12,5.35,19.68,8.01c-0.87,15.91-1.87,31.81-2.65,47.73
		c10.42-12.06,21.04-23.94,31.47-35.99c6.65,2.69,13.28,5.47,19.96,8.1c-8.19,19.98-16.3,39.99-24.46,59.99
		c-5.02-2.09-10.05-4.14-15.1-6.15c5.11-12.84,10.44-25.58,15.57-38.4c-9.96,10.81-19.77,21.76-29.71,32.59
		c-3.39-1.37-6.78-2.73-10.15-4.13c0.55-14.53,1.03-29.06,1.63-43.59c-5.31,12.6-10.3,25.33-15.56,37.95
		c-5.02-2.11-10.09-4.11-15.12-6.18C293.82,820.68,301.91,800.68,310.07,780.71z"/>
	<g>
		<path fill="#008000" d="M585.55,799.76c9.06-2.08,19.34-0.09,26.19,6.44c4.54,4.29,6.56,10.35,9.19,15.86
			c1.78,3.76,3.47,7.67,3.72,11.89c0.9,9.65-4.25,19.25-12.07,24.75c-9.03,6.45-20.9,10.13-31.83,6.83
			c-7.2-2-13.18-7.48-16.13-14.31c-3.6-8.24-8.99-16.72-6.81-26.13C560.26,811.6,572.89,802.7,585.55,799.76z M584.34,812.5
			c-4.55,1.41-8.97,4.65-10.05,9.54c-1.66,5.36,1.06,10.63,3.25,15.4c2.34,4.78,3.93,10.32,8.37,13.66
			c7.61,6.51,21.26,0.72,22.24-9.14c0.76-5.12-1.88-9.82-3.9-14.32c-2.08-4.34-3.65-9.2-7.4-12.45
			C593.54,812.16,588.6,810.85,584.34,812.5z"/>
	</g>
	<g>
		<path fill="#008000" d="M401.98,812.65c6.4,1.13,12.81,2.24,19.22,3.39c4.78,21.93,9.46,43.88,14.26,65.81
			c-6.33-1.1-12.64-2.24-18.97-3.33c-0.93-4.17-1.4-8.44-2.47-12.58c-7.4-1.65-14.94-2.66-22.39-4.08
			c-2.2,3.66-4.37,7.35-6.51,11.05c-6.37-1.05-12.72-2.21-19.07-3.34C378.06,850.61,389.95,831.59,401.98,812.65z M397.77,851.4
			c4.69,0.85,9.38,1.68,14.08,2.48c-1.18-6.7-2.49-13.38-3.71-20.07C404.67,839.66,401.25,845.54,397.77,851.4z"/>
	</g>
	<path fill="#008000" d="M535.34,813.93c5.09-0.47,10.15-1.15,15.24-1.55c2.22,21.43,4.54,42.84,6.87,64.24
		c-5.09,0.53-10.17,1.01-15.25,1.64c-0.92-8.63-1.8-17.25-2.79-25.86c-7.86,1.01-15.77,1.68-23.64,2.62
		c1,8.54,1.75,17.11,2.83,25.64c-5.06,0.74-10.17,1.11-15.24,1.78c-2.45-21.43-4.62-42.88-6.95-64.31
		c5.07-0.56,10.15-1.05,15.21-1.69c1.04,8.96,1.91,17.94,2.95,26.91c7.86-0.96,15.75-1.68,23.62-2.6
		C537.26,831.81,536.25,822.87,535.34,813.93z"/>
	<path fill="#008000" d="M444.49,818.73c5.75-0.06,11.5,0.01,17.25,0.33c-0.21,21.22-0.38,42.44-0.76,63.66
		c-5.79,0.1-11.58-0.13-17.37-0.27C443.88,861.21,444.07,839.96,444.49,818.73z"/>
</g>
</svg>
